<svg width="70" height="74" viewBox="0 0 70 74" fill="none" xmlns="http://www.w3.org/2000/svg">
<path d="M22.346 11.2454L29.6666 0.76975L36.9873 11.2454C34.6953 10.4954 32.222 10.0833 29.6666 10.0833C27.1113 10.0833 24.638 10.4954 22.346 11.2454ZM1.17821 17.219L13.9273 16.1464C12.0864 17.8039 10.5091 19.7348 9.25154 21.8726C7.90935 24.1301 7.09218 26.4414 6.59976 28.8279L1.17821 17.219ZM13.9305 51.2499L1.244 50.116L6.63701 38.564C7.68945 43.448 10.2392 47.883 13.9305 51.2499ZM45.4064 16.1151L58.1222 17.2181L52.7001 28.8282C51.676 23.9257 49.1219 19.4737 45.4064 16.1151ZM39.9166 33.6666C39.9166 28.0286 35.3047 23.4166 29.6666 23.4166C24.0286 23.4166 19.4166 28.0286 19.4166 33.6666C19.4166 39.3047 24.0286 43.9166 29.6666 43.9166C35.3047 43.9166 39.9166 39.3047 39.9166 33.6666ZM13.25 33.6666C13.25 24.6047 20.6047 17.25 29.6666 17.25C38.7286 17.25 46.0833 24.6047 46.0833 33.6666C46.0833 42.7286 38.7286 50.0833 29.6666 50.0833C20.6047 50.0833 13.25 42.7286 13.25 33.6666ZM63.2489 40.5833L69.4157 40.5833C69.3526 48.9714 66.1106 57.4013 59.7241 63.7223C53.3351 70.0458 44.9683 73.3512 36.5833 73.4157V67.2496C40.0353 67.2281 43.4513 66.539 46.6429 65.2195C49.9118 63.868 52.8804 61.8821 55.3771 59.3764C60.5624 54.191 63.1862 47.3963 63.2489 40.5833ZM49.9143 40.5833H56.0822C56.0551 43.0933 55.5488 45.5759 54.5897 47.8972C53.5989 50.2955 52.1443 52.4746 50.3095 54.3094C48.4746 56.1443 46.2955 57.5989 43.8972 58.5897C41.5759 59.5487 39.0933 60.055 36.5833 60.0822V53.9143C39.9034 53.851 43.3589 52.528 45.9434 49.9434C48.528 47.3589 49.851 43.9034 49.9143 40.5833Z" fill="black" stroke="#333333" stroke-width="0.5"/>
</svg>
